<mxfile host="app.diagrams.net" modified="2020-04-13T06:51:06.761Z" agent="5.0 (Windows)" etag="A5VYWd5Wymnt19rh0eQF" version="12.9.11" type="github" pages="6">
  <diagram id="rpSaoDBzVoQ7r3c92WG1" name="HomePageAll">
    <mxGraphModel dx="1422" dy="801" grid="1" gridSize="10" guides="1" tooltips="1" connect="1" arrows="1" fold="1" page="1" pageScale="1" pageWidth="850" pageHeight="1100" background="none" math="0" shadow="0">
      <root>
        <mxCell id="0" />
        <mxCell id="1" parent="0" />
        <mxCell id="5_kmS4JaBsQjt5RtgyR3-13" value="" style="rounded=1;whiteSpace=wrap;html=1;" parent="1" vertex="1">
          <mxGeometry x="105" y="255" width="640" height="115" as="geometry" />
        </mxCell>
        <mxCell id="5_kmS4JaBsQjt5RtgyR3-1" value="" style="rounded=0;whiteSpace=wrap;html=1;" parent="1" vertex="1">
          <mxGeometry x="65" y="10" width="720" height="60" as="geometry" />
        </mxCell>
        <mxCell id="5_kmS4JaBsQjt5RtgyR3-2" value="&lt;div&gt;LOGO&lt;/div&gt;" style="text;html=1;strokeColor=none;fillColor=none;align=center;verticalAlign=middle;whiteSpace=wrap;rounded=0;" parent="1" vertex="1">
          <mxGeometry x="90" y="30" width="40" height="20" as="geometry" />
        </mxCell>
        <mxCell id="5_kmS4JaBsQjt5RtgyR3-3" value="LOGIN" style="text;html=1;strokeColor=none;fillColor=none;align=center;verticalAlign=middle;whiteSpace=wrap;rounded=0;" parent="1" vertex="1">
          <mxGeometry x="730" y="30" width="40" height="20" as="geometry" />
        </mxCell>
        <mxCell id="5_kmS4JaBsQjt5RtgyR3-4" value="Branding web, tujuan, visi" style="rounded=1;whiteSpace=wrap;html=1;" parent="1" vertex="1">
          <mxGeometry x="245" y="100" width="360" height="110" as="geometry" />
        </mxCell>
        <mxCell id="5_kmS4JaBsQjt5RtgyR3-6" value="Image produk&lt;br&gt;&lt;div&gt;&lt;br&gt;&lt;/div&gt;&lt;div&gt;Nama RS&lt;br&gt;&lt;/div&gt;" style="rounded=1;whiteSpace=wrap;html=1;" parent="1" vertex="1">
          <mxGeometry x="140" y="290" width="120" height="60" as="geometry" />
        </mxCell>
        <mxCell id="5_kmS4JaBsQjt5RtgyR3-7" value="Image produk&lt;br&gt;&lt;div&gt;&lt;br&gt;&lt;/div&gt;&lt;div&gt;Nama RS&lt;br&gt;&lt;/div&gt;" style="rounded=1;whiteSpace=wrap;html=1;" parent="1" vertex="1">
          <mxGeometry x="570" y="290" width="120" height="60" as="geometry" />
        </mxCell>
        <mxCell id="5_kmS4JaBsQjt5RtgyR3-8" value="Image produk&lt;br&gt;&lt;div&gt;&lt;br&gt;&lt;/div&gt;&lt;div&gt;Nama RS&lt;br&gt;&lt;/div&gt;" style="rounded=1;whiteSpace=wrap;html=1;" parent="1" vertex="1">
          <mxGeometry x="365" y="290" width="120" height="60" as="geometry" />
        </mxCell>
        <mxCell id="5_kmS4JaBsQjt5RtgyR3-9" value="Click to Donate" style="rounded=1;whiteSpace=wrap;html=1;" parent="1" vertex="1">
          <mxGeometry x="365" y="230" width="120" height="30" as="geometry" />
        </mxCell>
        <mxCell id="5_kmS4JaBsQjt5RtgyR3-12" value="" style="rounded=0;whiteSpace=wrap;html=1;" parent="1" vertex="1">
          <mxGeometry x="105" y="390" width="640" height="420" as="geometry" />
        </mxCell>
        <mxCell id="5_kmS4JaBsQjt5RtgyR3-16" value="Show More" style="text;html=1;strokeColor=none;fillColor=none;align=center;verticalAlign=middle;whiteSpace=wrap;rounded=0;" parent="1" vertex="1">
          <mxGeometry x="645" y="260" width="100" height="20" as="geometry" />
        </mxCell>
        <mxCell id="5_kmS4JaBsQjt5RtgyR3-20" value="" style="rounded=1;whiteSpace=wrap;html=1;" parent="1" vertex="1">
          <mxGeometry x="130" y="460" width="170" height="130" as="geometry" />
        </mxCell>
        <mxCell id="5_kmS4JaBsQjt5RtgyR3-23" value="" style="rounded=1;whiteSpace=wrap;html=1;" parent="1" vertex="1">
          <mxGeometry x="340" y="460" width="170" height="130" as="geometry" />
        </mxCell>
        <mxCell id="5_kmS4JaBsQjt5RtgyR3-24" value="" style="rounded=1;whiteSpace=wrap;html=1;" parent="1" vertex="1">
          <mxGeometry x="550" y="460" width="170" height="130" as="geometry" />
        </mxCell>
        <mxCell id="5_kmS4JaBsQjt5RtgyR3-25" value="" style="rounded=1;whiteSpace=wrap;html=1;" parent="1" vertex="1">
          <mxGeometry x="130" y="650" width="170" height="130" as="geometry" />
        </mxCell>
        <mxCell id="5_kmS4JaBsQjt5RtgyR3-26" value="" style="rounded=1;whiteSpace=wrap;html=1;" parent="1" vertex="1">
          <mxGeometry x="340" y="650" width="170" height="130" as="geometry" />
        </mxCell>
        <mxCell id="5_kmS4JaBsQjt5RtgyR3-27" value="" style="rounded=1;whiteSpace=wrap;html=1;" parent="1" vertex="1">
          <mxGeometry x="550" y="650" width="170" height="130" as="geometry" />
        </mxCell>
        <mxCell id="5_kmS4JaBsQjt5RtgyR3-28" value="Show more" style="text;html=1;strokeColor=none;fillColor=none;align=center;verticalAlign=middle;whiteSpace=wrap;rounded=0;" parent="1" vertex="1">
          <mxGeometry x="660" y="430" width="70" height="20" as="geometry" />
        </mxCell>
        <mxCell id="B-DX-NOlFkAWMgIwntb9-1" value="Galang Dana" style="rounded=1;whiteSpace=wrap;html=1;fillColor=#dae8fc;strokeColor=#6c8ebf;" vertex="1" parent="1">
          <mxGeometry x="140" y="400" width="120" height="30" as="geometry" />
        </mxCell>
        <mxCell id="B-DX-NOlFkAWMgIwntb9-2" value="Tolong Pertolongan" style="rounded=1;whiteSpace=wrap;html=1;" vertex="1" parent="1">
          <mxGeometry x="260" y="400" width="120" height="30" as="geometry" />
        </mxCell>
        <mxCell id="Ei-ZYADFl7tvC1i5xBl4-1" value="#BersatuLawanCorona" style="text;html=1;strokeColor=none;fillColor=none;align=center;verticalAlign=middle;whiteSpace=wrap;rounded=0;" vertex="1" parent="1">
          <mxGeometry x="140" y="260" width="145" height="20" as="geometry" />
        </mxCell>
        <mxCell id="Ei-ZYADFl7tvC1i5xBl4-5" value="FOOTER" style="rounded=0;whiteSpace=wrap;html=1;" vertex="1" parent="1">
          <mxGeometry x="105" y="840" width="640" height="120" as="geometry" />
        </mxCell>
      </root>
    </mxGraphModel>
  </diagram>
  <diagram id="w2YXMNgl_LF0AQtasYuw" name="HomePageRS">
    <mxGraphModel dx="1422" dy="801" grid="1" gridSize="10" guides="1" tooltips="1" connect="1" arrows="1" fold="1" page="1" pageScale="1" pageWidth="850" pageHeight="1100" math="0" shadow="0">
      <root>
        <mxCell id="QzcUl1wwttV04GarLiwK-0" />
        <mxCell id="QzcUl1wwttV04GarLiwK-1" parent="QzcUl1wwttV04GarLiwK-0" />
        <mxCell id="-H-LsK3fCTVKS7mxs8RC-0" value="" style="rounded=1;whiteSpace=wrap;html=1;arcSize=0;" parent="QzcUl1wwttV04GarLiwK-1" vertex="1">
          <mxGeometry x="105" y="90" width="640" height="510" as="geometry" />
        </mxCell>
        <mxCell id="-H-LsK3fCTVKS7mxs8RC-1" value="" style="rounded=0;whiteSpace=wrap;html=1;" parent="QzcUl1wwttV04GarLiwK-1" vertex="1">
          <mxGeometry x="65" y="10" width="720" height="60" as="geometry" />
        </mxCell>
        <mxCell id="-H-LsK3fCTVKS7mxs8RC-2" value="&lt;div&gt;LOGO&lt;/div&gt;" style="text;html=1;strokeColor=none;fillColor=none;align=center;verticalAlign=middle;whiteSpace=wrap;rounded=0;" parent="QzcUl1wwttV04GarLiwK-1" vertex="1">
          <mxGeometry x="90" y="30" width="40" height="20" as="geometry" />
        </mxCell>
        <mxCell id="-H-LsK3fCTVKS7mxs8RC-5" value="Image produk&lt;br&gt;&lt;div&gt;&lt;br&gt;&lt;/div&gt;&lt;div&gt;&lt;br&gt;&lt;/div&gt;&lt;div&gt;&lt;br&gt;&lt;/div&gt;" style="rounded=1;whiteSpace=wrap;html=1;" parent="QzcUl1wwttV04GarLiwK-1" vertex="1">
          <mxGeometry x="138" y="308" width="120" height="92" as="geometry" />
        </mxCell>
        <mxCell id="-H-LsK3fCTVKS7mxs8RC-9" value="" style="rounded=0;whiteSpace=wrap;html=1;" parent="QzcUl1wwttV04GarLiwK-1" vertex="1">
          <mxGeometry x="105" y="620" width="640" height="230" as="geometry" />
        </mxCell>
        <mxCell id="-H-LsK3fCTVKS7mxs8RC-15" value="" style="rounded=1;whiteSpace=wrap;html=1;" parent="QzcUl1wwttV04GarLiwK-1" vertex="1">
          <mxGeometry x="130" y="690" width="170" height="130" as="geometry" />
        </mxCell>
        <mxCell id="-H-LsK3fCTVKS7mxs8RC-16" value="" style="rounded=1;whiteSpace=wrap;html=1;" parent="QzcUl1wwttV04GarLiwK-1" vertex="1">
          <mxGeometry x="340" y="690" width="170" height="130" as="geometry" />
        </mxCell>
        <mxCell id="-H-LsK3fCTVKS7mxs8RC-17" value="" style="rounded=1;whiteSpace=wrap;html=1;" parent="QzcUl1wwttV04GarLiwK-1" vertex="1">
          <mxGeometry x="550" y="690" width="170" height="130" as="geometry" />
        </mxCell>
        <mxCell id="-H-LsK3fCTVKS7mxs8RC-18" value="Show more" style="text;html=1;strokeColor=none;fillColor=none;align=center;verticalAlign=middle;whiteSpace=wrap;rounded=0;" parent="QzcUl1wwttV04GarLiwK-1" vertex="1">
          <mxGeometry x="660" y="660" width="70" height="20" as="geometry" />
        </mxCell>
        <mxCell id="-H-LsK3fCTVKS7mxs8RC-19" value="Selamat datang, RS ..." style="text;html=1;strokeColor=none;fillColor=none;align=center;verticalAlign=middle;whiteSpace=wrap;rounded=0;" parent="QzcUl1wwttV04GarLiwK-1" vertex="1">
          <mxGeometry x="640" y="30" width="140" height="20" as="geometry" />
        </mxCell>
        <mxCell id="-H-LsK3fCTVKS7mxs8RC-20" value="Click to Request" style="rounded=0;whiteSpace=wrap;html=1;" parent="QzcUl1wwttV04GarLiwK-1" vertex="1">
          <mxGeometry x="148" y="360" width="100" height="30" as="geometry" />
        </mxCell>
        <mxCell id="-H-LsK3fCTVKS7mxs8RC-22" value="Image produk&lt;br&gt;&lt;div&gt;&lt;br&gt;&lt;/div&gt;&lt;div&gt;&lt;br&gt;&lt;/div&gt;&lt;div&gt;&lt;br&gt;&lt;/div&gt;" style="rounded=1;whiteSpace=wrap;html=1;" parent="QzcUl1wwttV04GarLiwK-1" vertex="1">
          <mxGeometry x="288" y="309" width="120" height="92" as="geometry" />
        </mxCell>
        <mxCell id="-H-LsK3fCTVKS7mxs8RC-23" value="Click to Request" style="rounded=0;whiteSpace=wrap;html=1;" parent="QzcUl1wwttV04GarLiwK-1" vertex="1">
          <mxGeometry x="298" y="361" width="100" height="30" as="geometry" />
        </mxCell>
        <mxCell id="-H-LsK3fCTVKS7mxs8RC-24" value="Image produk&lt;br&gt;&lt;div&gt;&lt;br&gt;&lt;/div&gt;&lt;div&gt;&lt;br&gt;&lt;/div&gt;&lt;div&gt;&lt;br&gt;&lt;/div&gt;" style="rounded=1;whiteSpace=wrap;html=1;" parent="QzcUl1wwttV04GarLiwK-1" vertex="1">
          <mxGeometry x="443" y="309" width="120" height="92" as="geometry" />
        </mxCell>
        <mxCell id="-H-LsK3fCTVKS7mxs8RC-25" value="Click to Request" style="rounded=0;whiteSpace=wrap;html=1;" parent="QzcUl1wwttV04GarLiwK-1" vertex="1">
          <mxGeometry x="453" y="361" width="100" height="30" as="geometry" />
        </mxCell>
        <mxCell id="-H-LsK3fCTVKS7mxs8RC-26" value="Image produk&lt;br&gt;&lt;div&gt;&lt;br&gt;&lt;/div&gt;&lt;div&gt;&lt;br&gt;&lt;/div&gt;&lt;div&gt;&lt;br&gt;&lt;/div&gt;" style="rounded=1;whiteSpace=wrap;html=1;" parent="QzcUl1wwttV04GarLiwK-1" vertex="1">
          <mxGeometry x="598" y="309" width="120" height="92" as="geometry" />
        </mxCell>
        <mxCell id="-H-LsK3fCTVKS7mxs8RC-27" value="Click to Request" style="rounded=0;whiteSpace=wrap;html=1;" parent="QzcUl1wwttV04GarLiwK-1" vertex="1">
          <mxGeometry x="608" y="361" width="100" height="30" as="geometry" />
        </mxCell>
        <mxCell id="-H-LsK3fCTVKS7mxs8RC-30" value="Image produk&lt;br&gt;&lt;div&gt;&lt;br&gt;&lt;/div&gt;&lt;div&gt;&lt;br&gt;&lt;/div&gt;&lt;div&gt;&lt;br&gt;&lt;/div&gt;" style="rounded=1;whiteSpace=wrap;html=1;" parent="QzcUl1wwttV04GarLiwK-1" vertex="1">
          <mxGeometry x="133" y="170" width="120" height="92" as="geometry" />
        </mxCell>
        <mxCell id="-H-LsK3fCTVKS7mxs8RC-31" value="Click to Request" style="rounded=0;whiteSpace=wrap;html=1;" parent="QzcUl1wwttV04GarLiwK-1" vertex="1">
          <mxGeometry x="143" y="222" width="100" height="30" as="geometry" />
        </mxCell>
        <mxCell id="-H-LsK3fCTVKS7mxs8RC-32" value="Image produk&lt;br&gt;&lt;div&gt;&lt;br&gt;&lt;/div&gt;&lt;div&gt;&lt;br&gt;&lt;/div&gt;&lt;div&gt;&lt;br&gt;&lt;/div&gt;" style="rounded=1;whiteSpace=wrap;html=1;" parent="QzcUl1wwttV04GarLiwK-1" vertex="1">
          <mxGeometry x="283" y="171" width="120" height="92" as="geometry" />
        </mxCell>
        <mxCell id="-H-LsK3fCTVKS7mxs8RC-33" value="Click to Request" style="rounded=0;whiteSpace=wrap;html=1;" parent="QzcUl1wwttV04GarLiwK-1" vertex="1">
          <mxGeometry x="293" y="223" width="100" height="30" as="geometry" />
        </mxCell>
        <mxCell id="-H-LsK3fCTVKS7mxs8RC-34" value="Image produk&lt;br&gt;&lt;div&gt;&lt;br&gt;&lt;/div&gt;&lt;div&gt;&lt;br&gt;&lt;/div&gt;&lt;div&gt;&lt;br&gt;&lt;/div&gt;" style="rounded=1;whiteSpace=wrap;html=1;" parent="QzcUl1wwttV04GarLiwK-1" vertex="1">
          <mxGeometry x="438" y="171" width="120" height="92" as="geometry" />
        </mxCell>
        <mxCell id="-H-LsK3fCTVKS7mxs8RC-35" value="Click to Request" style="rounded=0;whiteSpace=wrap;html=1;" parent="QzcUl1wwttV04GarLiwK-1" vertex="1">
          <mxGeometry x="448" y="223" width="100" height="30" as="geometry" />
        </mxCell>
        <mxCell id="-H-LsK3fCTVKS7mxs8RC-36" value="Image produk&lt;br&gt;&lt;div&gt;&lt;br&gt;&lt;/div&gt;&lt;div&gt;&lt;br&gt;&lt;/div&gt;&lt;div&gt;&lt;br&gt;&lt;/div&gt;" style="rounded=1;whiteSpace=wrap;html=1;" parent="QzcUl1wwttV04GarLiwK-1" vertex="1">
          <mxGeometry x="593" y="171" width="120" height="92" as="geometry" />
        </mxCell>
        <mxCell id="-H-LsK3fCTVKS7mxs8RC-37" value="Click to Request" style="rounded=0;whiteSpace=wrap;html=1;" parent="QzcUl1wwttV04GarLiwK-1" vertex="1">
          <mxGeometry x="603" y="223" width="100" height="30" as="geometry" />
        </mxCell>
        <mxCell id="-H-LsK3fCTVKS7mxs8RC-38" value="Image produk&lt;br&gt;&lt;div&gt;&lt;br&gt;&lt;/div&gt;&lt;div&gt;&lt;br&gt;&lt;/div&gt;&lt;div&gt;&lt;br&gt;&lt;/div&gt;" style="rounded=1;whiteSpace=wrap;html=1;" parent="QzcUl1wwttV04GarLiwK-1" vertex="1">
          <mxGeometry x="133" y="440" width="120" height="92" as="geometry" />
        </mxCell>
        <mxCell id="-H-LsK3fCTVKS7mxs8RC-39" value="Click to Request" style="rounded=0;whiteSpace=wrap;html=1;" parent="QzcUl1wwttV04GarLiwK-1" vertex="1">
          <mxGeometry x="143" y="492" width="100" height="30" as="geometry" />
        </mxCell>
        <mxCell id="-H-LsK3fCTVKS7mxs8RC-40" value="Image produk&lt;br&gt;&lt;div&gt;&lt;br&gt;&lt;/div&gt;&lt;div&gt;&lt;br&gt;&lt;/div&gt;&lt;div&gt;&lt;br&gt;&lt;/div&gt;" style="rounded=1;whiteSpace=wrap;html=1;" parent="QzcUl1wwttV04GarLiwK-1" vertex="1">
          <mxGeometry x="283" y="441" width="120" height="92" as="geometry" />
        </mxCell>
        <mxCell id="-H-LsK3fCTVKS7mxs8RC-41" value="Click to Request" style="rounded=0;whiteSpace=wrap;html=1;" parent="QzcUl1wwttV04GarLiwK-1" vertex="1">
          <mxGeometry x="293" y="493" width="100" height="30" as="geometry" />
        </mxCell>
        <mxCell id="-H-LsK3fCTVKS7mxs8RC-42" value="Image produk&lt;br&gt;&lt;div&gt;&lt;br&gt;&lt;/div&gt;&lt;div&gt;&lt;br&gt;&lt;/div&gt;&lt;div&gt;&lt;br&gt;&lt;/div&gt;" style="rounded=1;whiteSpace=wrap;html=1;" parent="QzcUl1wwttV04GarLiwK-1" vertex="1">
          <mxGeometry x="438" y="441" width="120" height="92" as="geometry" />
        </mxCell>
        <mxCell id="-H-LsK3fCTVKS7mxs8RC-43" value="Click to Request" style="rounded=0;whiteSpace=wrap;html=1;" parent="QzcUl1wwttV04GarLiwK-1" vertex="1">
          <mxGeometry x="448" y="493" width="100" height="30" as="geometry" />
        </mxCell>
        <mxCell id="-H-LsK3fCTVKS7mxs8RC-44" value="Image produk&lt;br&gt;&lt;div&gt;&lt;br&gt;&lt;/div&gt;&lt;div&gt;&lt;br&gt;&lt;/div&gt;&lt;div&gt;&lt;br&gt;&lt;/div&gt;" style="rounded=1;whiteSpace=wrap;html=1;" parent="QzcUl1wwttV04GarLiwK-1" vertex="1">
          <mxGeometry x="593" y="441" width="120" height="92" as="geometry" />
        </mxCell>
        <mxCell id="-H-LsK3fCTVKS7mxs8RC-45" value="Click to Request" style="rounded=0;whiteSpace=wrap;html=1;" parent="QzcUl1wwttV04GarLiwK-1" vertex="1">
          <mxGeometry x="603" y="493" width="100" height="30" as="geometry" />
        </mxCell>
        <mxCell id="aAFcFqgYFEpC0dUFkWPR-0" value="notification" style="rounded=1;whiteSpace=wrap;html=1;" parent="QzcUl1wwttV04GarLiwK-1" vertex="1">
          <mxGeometry x="565" y="20" width="70" height="40" as="geometry" />
        </mxCell>
        <mxCell id="6GT_zSkC_4NiF-64TJmx-0" value="Pagination" style="rounded=0;whiteSpace=wrap;html=1;" vertex="1" parent="QzcUl1wwttV04GarLiwK-1">
          <mxGeometry x="363" y="557" width="120" height="23" as="geometry" />
        </mxCell>
        <mxCell id="AUeNq5qbRHtcT8UL2J8_-0" value="Galang Dana" style="rounded=1;whiteSpace=wrap;html=1;fillColor=#dae8fc;strokeColor=#6c8ebf;" vertex="1" parent="QzcUl1wwttV04GarLiwK-1">
          <mxGeometry x="130" y="640" width="120" height="30" as="geometry" />
        </mxCell>
        <mxCell id="AUeNq5qbRHtcT8UL2J8_-1" value="Tolong Pertolongan" style="rounded=1;whiteSpace=wrap;html=1;" vertex="1" parent="QzcUl1wwttV04GarLiwK-1">
          <mxGeometry x="250" y="640" width="120" height="30" as="geometry" />
        </mxCell>
        <mxCell id="BhxtKwTS_FHR2vDmxiDG-0" value="All" style="rounded=0;whiteSpace=wrap;html=1;fillColor=#dae8fc;strokeColor=#6c8ebf;" vertex="1" parent="QzcUl1wwttV04GarLiwK-1">
          <mxGeometry x="133" y="120" width="120" height="30" as="geometry" />
        </mxCell>
        <mxCell id="BhxtKwTS_FHR2vDmxiDG-1" value="APD" style="rounded=0;whiteSpace=wrap;html=1;" vertex="1" parent="QzcUl1wwttV04GarLiwK-1">
          <mxGeometry x="253" y="120" width="120" height="30" as="geometry" />
        </mxCell>
        <mxCell id="BhxtKwTS_FHR2vDmxiDG-2" value="Lain-lain" style="rounded=0;whiteSpace=wrap;html=1;" vertex="1" parent="QzcUl1wwttV04GarLiwK-1">
          <mxGeometry x="373" y="120" width="120" height="30" as="geometry" />
        </mxCell>
        <mxCell id="BhxtKwTS_FHR2vDmxiDG-3" value="Search" style="rounded=0;whiteSpace=wrap;html=1;" vertex="1" parent="QzcUl1wwttV04GarLiwK-1">
          <mxGeometry x="540" y="120" width="173" height="30" as="geometry" />
        </mxCell>
        <mxCell id="BhxtKwTS_FHR2vDmxiDG-4" value="" style="triangle;whiteSpace=wrap;html=1;" vertex="1" parent="QzcUl1wwttV04GarLiwK-1">
          <mxGeometry x="483" y="126.33999999999999" width="13" height="17.33" as="geometry" />
        </mxCell>
        <mxCell id="BhxtKwTS_FHR2vDmxiDG-5" value="" style="triangle;whiteSpace=wrap;html=1;flipH=1;" vertex="1" parent="QzcUl1wwttV04GarLiwK-1">
          <mxGeometry x="130" y="126.33999999999999" width="13" height="17.33" as="geometry" />
        </mxCell>
      </root>
    </mxGraphModel>
  </diagram>
  <diagram id="ZNfcRsJtm4-oKjAGm11g" name="RegisterPageRS">
    <mxGraphModel dx="1422" dy="801" grid="1" gridSize="10" guides="1" tooltips="1" connect="1" arrows="1" fold="1" page="1" pageScale="1" pageWidth="850" pageHeight="1100" math="0" shadow="0">
      <root>
        <mxCell id="_2FA7cechdiQjmcyPbNU-0" />
        <mxCell id="_2FA7cechdiQjmcyPbNU-1" parent="_2FA7cechdiQjmcyPbNU-0" />
        <mxCell id="4LLaTZlpnm0Z7nrwQdtH-1" value="" style="rounded=0;whiteSpace=wrap;html=1;" parent="_2FA7cechdiQjmcyPbNU-1" vertex="1">
          <mxGeometry x="65" y="10" width="720" height="60" as="geometry" />
        </mxCell>
        <mxCell id="4LLaTZlpnm0Z7nrwQdtH-2" value="&lt;div&gt;LOGO&lt;/div&gt;" style="text;html=1;strokeColor=none;fillColor=none;align=center;verticalAlign=middle;whiteSpace=wrap;rounded=0;" parent="_2FA7cechdiQjmcyPbNU-1" vertex="1">
          <mxGeometry x="90" y="30" width="40" height="20" as="geometry" />
        </mxCell>
        <mxCell id="5ql8_BC_u-844j1GgVZg-0" value="Email" style="rounded=0;whiteSpace=wrap;html=1;" parent="_2FA7cechdiQjmcyPbNU-1" vertex="1">
          <mxGeometry x="365" y="120" width="120" height="60" as="geometry" />
        </mxCell>
        <mxCell id="5ql8_BC_u-844j1GgVZg-1" value="Nama Lengkap" style="rounded=0;whiteSpace=wrap;html=1;" parent="_2FA7cechdiQjmcyPbNU-1" vertex="1">
          <mxGeometry x="265" y="120" width="320" height="60" as="geometry" />
        </mxCell>
        <mxCell id="5ql8_BC_u-844j1GgVZg-2" value="Email" style="rounded=0;whiteSpace=wrap;html=1;" parent="_2FA7cechdiQjmcyPbNU-1" vertex="1">
          <mxGeometry x="265" y="210" width="320" height="60" as="geometry" />
        </mxCell>
        <mxCell id="5ql8_BC_u-844j1GgVZg-3" value="Rumah Sakit" style="rounded=0;whiteSpace=wrap;html=1;" parent="_2FA7cechdiQjmcyPbNU-1" vertex="1">
          <mxGeometry x="265" y="300" width="320" height="60" as="geometry" />
        </mxCell>
        <mxCell id="5ql8_BC_u-844j1GgVZg-4" value="Alamat Rumah Sakit" style="rounded=0;whiteSpace=wrap;html=1;" parent="_2FA7cechdiQjmcyPbNU-1" vertex="1">
          <mxGeometry x="265" y="390" width="320" height="60" as="geometry" />
        </mxCell>
        <mxCell id="5ql8_BC_u-844j1GgVZg-5" value="Password" style="rounded=0;whiteSpace=wrap;html=1;" parent="_2FA7cechdiQjmcyPbNU-1" vertex="1">
          <mxGeometry x="265" y="480" width="320" height="60" as="geometry" />
        </mxCell>
        <mxCell id="5ql8_BC_u-844j1GgVZg-7" value="Sign Up" style="rounded=1;whiteSpace=wrap;html=1;" parent="_2FA7cechdiQjmcyPbNU-1" vertex="1">
          <mxGeometry x="365" y="580" width="120" height="40" as="geometry" />
        </mxCell>
        <mxCell id="5ql8_BC_u-844j1GgVZg-8" value="Have Account?&amp;nbsp; Sign In" style="text;html=1;strokeColor=none;fillColor=none;align=center;verticalAlign=middle;whiteSpace=wrap;rounded=0;" parent="_2FA7cechdiQjmcyPbNU-1" vertex="1">
          <mxGeometry x="338" y="640" width="175" height="20" as="geometry" />
        </mxCell>
      </root>
    </mxGraphModel>
  </diagram>
  <diagram id="oJD5ZIHoA6ual8P4txj9" name="RegisterPageAll">
    <mxGraphModel dx="1422" dy="801" grid="1" gridSize="10" guides="1" tooltips="1" connect="1" arrows="1" fold="1" page="1" pageScale="1" pageWidth="850" pageHeight="1100" math="0" shadow="0">
      <root>
        <mxCell id="q1-L8izgamb1GKafbifI-0" />
        <mxCell id="q1-L8izgamb1GKafbifI-1" parent="q1-L8izgamb1GKafbifI-0" />
        <mxCell id="DbmbTegS90HDT0MCVXC9-0" value="" style="rounded=0;whiteSpace=wrap;html=1;" parent="q1-L8izgamb1GKafbifI-1" vertex="1">
          <mxGeometry x="65" y="10" width="720" height="60" as="geometry" />
        </mxCell>
        <mxCell id="DbmbTegS90HDT0MCVXC9-1" value="&lt;div&gt;LOGO&lt;/div&gt;" style="text;html=1;strokeColor=none;fillColor=none;align=center;verticalAlign=middle;whiteSpace=wrap;rounded=0;" parent="q1-L8izgamb1GKafbifI-1" vertex="1">
          <mxGeometry x="90" y="30" width="40" height="20" as="geometry" />
        </mxCell>
        <mxCell id="DbmbTegS90HDT0MCVXC9-3" value="Nama Lengkap" style="rounded=0;whiteSpace=wrap;html=1;" parent="q1-L8izgamb1GKafbifI-1" vertex="1">
          <mxGeometry x="265" y="130" width="320" height="60" as="geometry" />
        </mxCell>
        <mxCell id="DbmbTegS90HDT0MCVXC9-4" value="Email" style="rounded=0;whiteSpace=wrap;html=1;" parent="q1-L8izgamb1GKafbifI-1" vertex="1">
          <mxGeometry x="265.5" y="220" width="320" height="60" as="geometry" />
        </mxCell>
        <mxCell id="DbmbTegS90HDT0MCVXC9-5" value="Instansi / Lembaga / Perorangan" style="rounded=0;whiteSpace=wrap;html=1;" parent="q1-L8izgamb1GKafbifI-1" vertex="1">
          <mxGeometry x="265.5" y="310" width="320" height="60" as="geometry" />
        </mxCell>
        <mxCell id="DbmbTegS90HDT0MCVXC9-7" value="Password" style="rounded=0;whiteSpace=wrap;html=1;" parent="q1-L8izgamb1GKafbifI-1" vertex="1">
          <mxGeometry x="265" y="400" width="320" height="60" as="geometry" />
        </mxCell>
        <mxCell id="DbmbTegS90HDT0MCVXC9-8" value="Sign Up" style="rounded=1;whiteSpace=wrap;html=1;" parent="q1-L8izgamb1GKafbifI-1" vertex="1">
          <mxGeometry x="365.5" y="490" width="120" height="40" as="geometry" />
        </mxCell>
        <mxCell id="DbmbTegS90HDT0MCVXC9-9" value="Have Account?&amp;nbsp; Sign In" style="text;html=1;strokeColor=none;fillColor=none;align=center;verticalAlign=middle;whiteSpace=wrap;rounded=0;" parent="q1-L8izgamb1GKafbifI-1" vertex="1">
          <mxGeometry x="338" y="750" width="175" height="20" as="geometry" />
        </mxCell>
        <mxCell id="DbmbTegS90HDT0MCVXC9-10" value="Login With" style="text;html=1;strokeColor=none;fillColor=none;align=center;verticalAlign=middle;whiteSpace=wrap;rounded=0;" parent="q1-L8izgamb1GKafbifI-1" vertex="1">
          <mxGeometry x="385" y="610" width="80" height="20" as="geometry" />
        </mxCell>
        <mxCell id="DbmbTegS90HDT0MCVXC9-11" value="Or" style="text;html=1;strokeColor=none;fillColor=none;align=center;verticalAlign=middle;whiteSpace=wrap;rounded=0;" parent="q1-L8izgamb1GKafbifI-1" vertex="1">
          <mxGeometry x="385" y="560" width="80" height="20" as="geometry" />
        </mxCell>
        <mxCell id="DbmbTegS90HDT0MCVXC9-12" value="Goggle Account" style="rounded=1;whiteSpace=wrap;html=1;" parent="q1-L8izgamb1GKafbifI-1" vertex="1">
          <mxGeometry x="365" y="640" width="120" height="60" as="geometry" />
        </mxCell>
      </root>
    </mxGraphModel>
  </diagram>
  <diagram id="d0ImJnprWVXcr5VaySrd" name="DonatePage">
    <mxGraphModel dx="1422" dy="1201" grid="1" gridSize="10" guides="1" tooltips="1" connect="1" arrows="1" fold="1" page="0" pageScale="1" pageWidth="850" pageHeight="1100" math="0" shadow="0">
      <root>
        <mxCell id="cxCK_dhQIBNcuo4q6ZDZ-0" />
        <mxCell id="cxCK_dhQIBNcuo4q6ZDZ-1" parent="cxCK_dhQIBNcuo4q6ZDZ-0" />
        <mxCell id="cxCK_dhQIBNcuo4q6ZDZ-2" value="" style="rounded=1;whiteSpace=wrap;html=1;arcSize=0;" parent="cxCK_dhQIBNcuo4q6ZDZ-1" vertex="1">
          <mxGeometry x="990" y="10" width="640" height="690" as="geometry" />
        </mxCell>
        <mxCell id="cxCK_dhQIBNcuo4q6ZDZ-3" value="" style="rounded=0;whiteSpace=wrap;html=1;" parent="cxCK_dhQIBNcuo4q6ZDZ-1" vertex="1">
          <mxGeometry x="950" y="-90" width="720" height="60" as="geometry" />
        </mxCell>
        <mxCell id="cxCK_dhQIBNcuo4q6ZDZ-4" value="&lt;div&gt;LOGO&lt;/div&gt;" style="text;html=1;strokeColor=none;fillColor=none;align=center;verticalAlign=middle;whiteSpace=wrap;rounded=0;" parent="cxCK_dhQIBNcuo4q6ZDZ-1" vertex="1">
          <mxGeometry x="975" y="-70" width="40" height="20" as="geometry" />
        </mxCell>
        <mxCell id="cxCK_dhQIBNcuo4q6ZDZ-5" value="Selamat Datang, ..." style="text;html=1;strokeColor=none;fillColor=none;align=center;verticalAlign=middle;whiteSpace=wrap;rounded=0;" parent="cxCK_dhQIBNcuo4q6ZDZ-1" vertex="1">
          <mxGeometry x="1545" y="-70" width="110" height="20" as="geometry" />
        </mxCell>
        <mxCell id="cxCK_dhQIBNcuo4q6ZDZ-29" value="" style="rounded=0;whiteSpace=wrap;html=1;" parent="cxCK_dhQIBNcuo4q6ZDZ-1" vertex="1">
          <mxGeometry x="1005" y="20" width="610" height="50" as="geometry" />
        </mxCell>
        <mxCell id="cxCK_dhQIBNcuo4q6ZDZ-30" value="Search" style="rounded=1;whiteSpace=wrap;html=1;" parent="cxCK_dhQIBNcuo4q6ZDZ-1" vertex="1">
          <mxGeometry x="1395" y="30" width="210" height="30" as="geometry" />
        </mxCell>
        <mxCell id="cxCK_dhQIBNcuo4q6ZDZ-67" value="" style="group" parent="cxCK_dhQIBNcuo4q6ZDZ-1" vertex="1" connectable="0">
          <mxGeometry x="1005" y="110" width="610" height="60" as="geometry" />
        </mxCell>
        <mxCell id="cxCK_dhQIBNcuo4q6ZDZ-31" value="&amp;nbsp;&amp;nbsp;&amp;nbsp;&amp;nbsp;&amp;nbsp;&amp;nbsp;&amp;nbsp;&amp;nbsp;&amp;nbsp;&amp;nbsp;&amp;nbsp;&amp;nbsp;&amp;nbsp;&amp;nbsp;&amp;nbsp;&amp;nbsp;&amp;nbsp;&amp;nbsp;&amp;nbsp;&amp;nbsp;&amp;nbsp;&amp;nbsp;&amp;nbsp;&amp;nbsp;&amp;nbsp;&amp;nbsp;&amp;nbsp;&amp;nbsp;&amp;nbsp;&amp;nbsp;&amp;nbsp;&amp;nbsp;&amp;nbsp;&amp;nbsp;&amp;nbsp;&amp;nbsp;&amp;nbsp;&amp;nbsp;&amp;nbsp;&amp;nbsp;&amp;nbsp;&amp;nbsp;&amp;nbsp; Nama Produk" style="rounded=0;whiteSpace=wrap;html=1;align=left;" parent="cxCK_dhQIBNcuo4q6ZDZ-67" vertex="1">
          <mxGeometry width="610" height="60" as="geometry" />
        </mxCell>
        <mxCell id="cxCK_dhQIBNcuo4q6ZDZ-32" value="Foto" style="rounded=1;whiteSpace=wrap;html=1;arcSize=0;" parent="cxCK_dhQIBNcuo4q6ZDZ-67" vertex="1">
          <mxGeometry width="110" height="60" as="geometry" />
        </mxCell>
        <mxCell id="cxCK_dhQIBNcuo4q6ZDZ-36" value="Donate" style="rounded=1;whiteSpace=wrap;html=1;" parent="cxCK_dhQIBNcuo4q6ZDZ-67" vertex="1">
          <mxGeometry x="520" y="12.5" width="80" height="35" as="geometry" />
        </mxCell>
        <mxCell id="cxCK_dhQIBNcuo4q6ZDZ-66" value="Nama RS" style="rounded=0;whiteSpace=wrap;html=1;" parent="cxCK_dhQIBNcuo4q6ZDZ-67" vertex="1">
          <mxGeometry x="320" width="150" height="60" as="geometry" />
        </mxCell>
        <mxCell id="cxCK_dhQIBNcuo4q6ZDZ-68" value="" style="group" parent="cxCK_dhQIBNcuo4q6ZDZ-1" vertex="1" connectable="0">
          <mxGeometry x="1005" y="170" width="610" height="60" as="geometry" />
        </mxCell>
        <mxCell id="cxCK_dhQIBNcuo4q6ZDZ-69" value="&amp;nbsp;&amp;nbsp;&amp;nbsp;&amp;nbsp;&amp;nbsp;&amp;nbsp;&amp;nbsp;&amp;nbsp;&amp;nbsp;&amp;nbsp;&amp;nbsp;&amp;nbsp;&amp;nbsp;&amp;nbsp;&amp;nbsp;&amp;nbsp;&amp;nbsp;&amp;nbsp;&amp;nbsp;&amp;nbsp;&amp;nbsp;&amp;nbsp;&amp;nbsp;&amp;nbsp;&amp;nbsp;&amp;nbsp;&amp;nbsp;&amp;nbsp;&amp;nbsp;&amp;nbsp;&amp;nbsp;&amp;nbsp;&amp;nbsp;&amp;nbsp;&amp;nbsp;&amp;nbsp;&amp;nbsp;&amp;nbsp;&amp;nbsp;&amp;nbsp;&amp;nbsp;&amp;nbsp;&amp;nbsp; Nama Produk" style="rounded=0;whiteSpace=wrap;html=1;align=left;" parent="cxCK_dhQIBNcuo4q6ZDZ-68" vertex="1">
          <mxGeometry width="610" height="60" as="geometry" />
        </mxCell>
        <mxCell id="cxCK_dhQIBNcuo4q6ZDZ-70" value="Foto" style="rounded=1;whiteSpace=wrap;html=1;arcSize=0;" parent="cxCK_dhQIBNcuo4q6ZDZ-68" vertex="1">
          <mxGeometry width="110" height="60" as="geometry" />
        </mxCell>
        <mxCell id="cxCK_dhQIBNcuo4q6ZDZ-71" value="Donate" style="rounded=1;whiteSpace=wrap;html=1;" parent="cxCK_dhQIBNcuo4q6ZDZ-68" vertex="1">
          <mxGeometry x="520" y="12.5" width="80" height="35" as="geometry" />
        </mxCell>
        <mxCell id="cxCK_dhQIBNcuo4q6ZDZ-72" value="Nama RS" style="rounded=0;whiteSpace=wrap;html=1;" parent="cxCK_dhQIBNcuo4q6ZDZ-68" vertex="1">
          <mxGeometry x="320" width="150" height="60" as="geometry" />
        </mxCell>
        <mxCell id="cxCK_dhQIBNcuo4q6ZDZ-73" value="" style="group" parent="cxCK_dhQIBNcuo4q6ZDZ-1" vertex="1" connectable="0">
          <mxGeometry x="1005" y="290" width="610" height="60" as="geometry" />
        </mxCell>
        <mxCell id="cxCK_dhQIBNcuo4q6ZDZ-74" value="&amp;nbsp;&amp;nbsp;&amp;nbsp;&amp;nbsp;&amp;nbsp;&amp;nbsp;&amp;nbsp;&amp;nbsp;&amp;nbsp;&amp;nbsp;&amp;nbsp;&amp;nbsp;&amp;nbsp;&amp;nbsp;&amp;nbsp;&amp;nbsp;&amp;nbsp;&amp;nbsp;&amp;nbsp;&amp;nbsp;&amp;nbsp;&amp;nbsp;&amp;nbsp;&amp;nbsp;&amp;nbsp;&amp;nbsp;&amp;nbsp;&amp;nbsp;&amp;nbsp;&amp;nbsp;&amp;nbsp;&amp;nbsp;&amp;nbsp;&amp;nbsp;&amp;nbsp;&amp;nbsp;&amp;nbsp;&amp;nbsp;&amp;nbsp;&amp;nbsp;&amp;nbsp;&amp;nbsp;&amp;nbsp; Nama Produk" style="rounded=0;whiteSpace=wrap;html=1;align=left;" parent="cxCK_dhQIBNcuo4q6ZDZ-73" vertex="1">
          <mxGeometry width="610" height="60" as="geometry" />
        </mxCell>
        <mxCell id="cxCK_dhQIBNcuo4q6ZDZ-75" value="Foto" style="rounded=1;whiteSpace=wrap;html=1;arcSize=0;" parent="cxCK_dhQIBNcuo4q6ZDZ-73" vertex="1">
          <mxGeometry width="110" height="60" as="geometry" />
        </mxCell>
        <mxCell id="cxCK_dhQIBNcuo4q6ZDZ-76" value="Donate" style="rounded=1;whiteSpace=wrap;html=1;" parent="cxCK_dhQIBNcuo4q6ZDZ-73" vertex="1">
          <mxGeometry x="520" y="12.5" width="80" height="35" as="geometry" />
        </mxCell>
        <mxCell id="cxCK_dhQIBNcuo4q6ZDZ-77" value="Nama RS" style="rounded=0;whiteSpace=wrap;html=1;" parent="cxCK_dhQIBNcuo4q6ZDZ-73" vertex="1">
          <mxGeometry x="320" width="150" height="60" as="geometry" />
        </mxCell>
        <mxCell id="cxCK_dhQIBNcuo4q6ZDZ-78" value="" style="group" parent="cxCK_dhQIBNcuo4q6ZDZ-1" vertex="1" connectable="0">
          <mxGeometry x="1005" y="230" width="610" height="60" as="geometry" />
        </mxCell>
        <mxCell id="cxCK_dhQIBNcuo4q6ZDZ-79" value="&amp;nbsp;&amp;nbsp;&amp;nbsp;&amp;nbsp;&amp;nbsp;&amp;nbsp;&amp;nbsp;&amp;nbsp;&amp;nbsp;&amp;nbsp;&amp;nbsp;&amp;nbsp;&amp;nbsp;&amp;nbsp;&amp;nbsp;&amp;nbsp;&amp;nbsp;&amp;nbsp;&amp;nbsp;&amp;nbsp;&amp;nbsp;&amp;nbsp;&amp;nbsp;&amp;nbsp;&amp;nbsp;&amp;nbsp;&amp;nbsp;&amp;nbsp;&amp;nbsp;&amp;nbsp;&amp;nbsp;&amp;nbsp;&amp;nbsp;&amp;nbsp;&amp;nbsp;&amp;nbsp;&amp;nbsp;&amp;nbsp;&amp;nbsp;&amp;nbsp;&amp;nbsp;&amp;nbsp;&amp;nbsp; Nama Produk" style="rounded=0;whiteSpace=wrap;html=1;align=left;" parent="cxCK_dhQIBNcuo4q6ZDZ-78" vertex="1">
          <mxGeometry width="610" height="60" as="geometry" />
        </mxCell>
        <mxCell id="cxCK_dhQIBNcuo4q6ZDZ-80" value="Foto" style="rounded=1;whiteSpace=wrap;html=1;arcSize=0;" parent="cxCK_dhQIBNcuo4q6ZDZ-78" vertex="1">
          <mxGeometry width="110" height="60" as="geometry" />
        </mxCell>
        <mxCell id="cxCK_dhQIBNcuo4q6ZDZ-81" value="Donate" style="rounded=1;whiteSpace=wrap;html=1;" parent="cxCK_dhQIBNcuo4q6ZDZ-78" vertex="1">
          <mxGeometry x="520" y="12.5" width="80" height="35" as="geometry" />
        </mxCell>
        <mxCell id="cxCK_dhQIBNcuo4q6ZDZ-82" value="Nama RS" style="rounded=0;whiteSpace=wrap;html=1;" parent="cxCK_dhQIBNcuo4q6ZDZ-78" vertex="1">
          <mxGeometry x="320" width="150" height="60" as="geometry" />
        </mxCell>
        <mxCell id="cxCK_dhQIBNcuo4q6ZDZ-83" value="" style="group" parent="cxCK_dhQIBNcuo4q6ZDZ-1" vertex="1" connectable="0">
          <mxGeometry x="1005" y="530" width="610" height="60" as="geometry" />
        </mxCell>
        <mxCell id="cxCK_dhQIBNcuo4q6ZDZ-84" value="&amp;nbsp;&amp;nbsp;&amp;nbsp;&amp;nbsp;&amp;nbsp;&amp;nbsp;&amp;nbsp;&amp;nbsp;&amp;nbsp;&amp;nbsp;&amp;nbsp;&amp;nbsp;&amp;nbsp;&amp;nbsp;&amp;nbsp;&amp;nbsp;&amp;nbsp;&amp;nbsp;&amp;nbsp;&amp;nbsp;&amp;nbsp;&amp;nbsp;&amp;nbsp;&amp;nbsp;&amp;nbsp;&amp;nbsp;&amp;nbsp;&amp;nbsp;&amp;nbsp;&amp;nbsp;&amp;nbsp;&amp;nbsp;&amp;nbsp;&amp;nbsp;&amp;nbsp;&amp;nbsp;&amp;nbsp;&amp;nbsp;&amp;nbsp;&amp;nbsp;&amp;nbsp;&amp;nbsp;&amp;nbsp; Nama Produk" style="rounded=0;whiteSpace=wrap;html=1;align=left;" parent="cxCK_dhQIBNcuo4q6ZDZ-83" vertex="1">
          <mxGeometry width="610" height="60" as="geometry" />
        </mxCell>
        <mxCell id="cxCK_dhQIBNcuo4q6ZDZ-85" value="Foto" style="rounded=1;whiteSpace=wrap;html=1;arcSize=0;" parent="cxCK_dhQIBNcuo4q6ZDZ-83" vertex="1">
          <mxGeometry width="110" height="60" as="geometry" />
        </mxCell>
        <mxCell id="cxCK_dhQIBNcuo4q6ZDZ-86" value="Donate" style="rounded=1;whiteSpace=wrap;html=1;" parent="cxCK_dhQIBNcuo4q6ZDZ-83" vertex="1">
          <mxGeometry x="520" y="12.5" width="80" height="35" as="geometry" />
        </mxCell>
        <mxCell id="cxCK_dhQIBNcuo4q6ZDZ-87" value="Nama RS" style="rounded=0;whiteSpace=wrap;html=1;" parent="cxCK_dhQIBNcuo4q6ZDZ-83" vertex="1">
          <mxGeometry x="320" width="150" height="60" as="geometry" />
        </mxCell>
        <mxCell id="cxCK_dhQIBNcuo4q6ZDZ-88" value="" style="group" parent="cxCK_dhQIBNcuo4q6ZDZ-1" vertex="1" connectable="0">
          <mxGeometry x="1005" y="470" width="610" height="60" as="geometry" />
        </mxCell>
        <mxCell id="cxCK_dhQIBNcuo4q6ZDZ-89" value="&amp;nbsp;&amp;nbsp;&amp;nbsp;&amp;nbsp;&amp;nbsp;&amp;nbsp;&amp;nbsp;&amp;nbsp;&amp;nbsp;&amp;nbsp;&amp;nbsp;&amp;nbsp;&amp;nbsp;&amp;nbsp;&amp;nbsp;&amp;nbsp;&amp;nbsp;&amp;nbsp;&amp;nbsp;&amp;nbsp;&amp;nbsp;&amp;nbsp;&amp;nbsp;&amp;nbsp;&amp;nbsp;&amp;nbsp;&amp;nbsp;&amp;nbsp;&amp;nbsp;&amp;nbsp;&amp;nbsp;&amp;nbsp;&amp;nbsp;&amp;nbsp;&amp;nbsp;&amp;nbsp;&amp;nbsp;&amp;nbsp;&amp;nbsp;&amp;nbsp;&amp;nbsp;&amp;nbsp;&amp;nbsp; Nama Produk" style="rounded=0;whiteSpace=wrap;html=1;align=left;" parent="cxCK_dhQIBNcuo4q6ZDZ-88" vertex="1">
          <mxGeometry width="610" height="60" as="geometry" />
        </mxCell>
        <mxCell id="cxCK_dhQIBNcuo4q6ZDZ-90" value="Foto" style="rounded=1;whiteSpace=wrap;html=1;arcSize=0;" parent="cxCK_dhQIBNcuo4q6ZDZ-88" vertex="1">
          <mxGeometry width="110" height="60" as="geometry" />
        </mxCell>
        <mxCell id="cxCK_dhQIBNcuo4q6ZDZ-91" value="Donate" style="rounded=1;whiteSpace=wrap;html=1;" parent="cxCK_dhQIBNcuo4q6ZDZ-88" vertex="1">
          <mxGeometry x="520" y="12.5" width="80" height="35" as="geometry" />
        </mxCell>
        <mxCell id="cxCK_dhQIBNcuo4q6ZDZ-92" value="Nama RS" style="rounded=0;whiteSpace=wrap;html=1;" parent="cxCK_dhQIBNcuo4q6ZDZ-88" vertex="1">
          <mxGeometry x="320" width="150" height="60" as="geometry" />
        </mxCell>
        <mxCell id="cxCK_dhQIBNcuo4q6ZDZ-93" value="" style="group" parent="cxCK_dhQIBNcuo4q6ZDZ-1" vertex="1" connectable="0">
          <mxGeometry x="1005" y="350" width="610" height="60" as="geometry" />
        </mxCell>
        <mxCell id="cxCK_dhQIBNcuo4q6ZDZ-94" value="&amp;nbsp;&amp;nbsp;&amp;nbsp;&amp;nbsp;&amp;nbsp;&amp;nbsp;&amp;nbsp;&amp;nbsp;&amp;nbsp;&amp;nbsp;&amp;nbsp;&amp;nbsp;&amp;nbsp;&amp;nbsp;&amp;nbsp;&amp;nbsp;&amp;nbsp;&amp;nbsp;&amp;nbsp;&amp;nbsp;&amp;nbsp;&amp;nbsp;&amp;nbsp;&amp;nbsp;&amp;nbsp;&amp;nbsp;&amp;nbsp;&amp;nbsp;&amp;nbsp;&amp;nbsp;&amp;nbsp;&amp;nbsp;&amp;nbsp;&amp;nbsp;&amp;nbsp;&amp;nbsp;&amp;nbsp;&amp;nbsp;&amp;nbsp;&amp;nbsp;&amp;nbsp;&amp;nbsp;&amp;nbsp; Nama Produk" style="rounded=0;whiteSpace=wrap;html=1;align=left;" parent="cxCK_dhQIBNcuo4q6ZDZ-93" vertex="1">
          <mxGeometry width="610" height="60" as="geometry" />
        </mxCell>
        <mxCell id="cxCK_dhQIBNcuo4q6ZDZ-95" value="Foto" style="rounded=1;whiteSpace=wrap;html=1;arcSize=0;" parent="cxCK_dhQIBNcuo4q6ZDZ-93" vertex="1">
          <mxGeometry width="110" height="60" as="geometry" />
        </mxCell>
        <mxCell id="cxCK_dhQIBNcuo4q6ZDZ-96" value="Donate" style="rounded=1;whiteSpace=wrap;html=1;" parent="cxCK_dhQIBNcuo4q6ZDZ-93" vertex="1">
          <mxGeometry x="520" y="12.5" width="80" height="35" as="geometry" />
        </mxCell>
        <mxCell id="cxCK_dhQIBNcuo4q6ZDZ-97" value="Nama RS" style="rounded=0;whiteSpace=wrap;html=1;" parent="cxCK_dhQIBNcuo4q6ZDZ-93" vertex="1">
          <mxGeometry x="320" width="150" height="60" as="geometry" />
        </mxCell>
        <mxCell id="cxCK_dhQIBNcuo4q6ZDZ-98" value="" style="group" parent="cxCK_dhQIBNcuo4q6ZDZ-1" vertex="1" connectable="0">
          <mxGeometry x="1005" y="410" width="610" height="60" as="geometry" />
        </mxCell>
        <mxCell id="cxCK_dhQIBNcuo4q6ZDZ-99" value="&amp;nbsp;&amp;nbsp;&amp;nbsp;&amp;nbsp;&amp;nbsp;&amp;nbsp;&amp;nbsp;&amp;nbsp;&amp;nbsp;&amp;nbsp;&amp;nbsp;&amp;nbsp;&amp;nbsp;&amp;nbsp;&amp;nbsp;&amp;nbsp;&amp;nbsp;&amp;nbsp;&amp;nbsp;&amp;nbsp;&amp;nbsp;&amp;nbsp;&amp;nbsp;&amp;nbsp;&amp;nbsp;&amp;nbsp;&amp;nbsp;&amp;nbsp;&amp;nbsp;&amp;nbsp;&amp;nbsp;&amp;nbsp;&amp;nbsp;&amp;nbsp;&amp;nbsp;&amp;nbsp;&amp;nbsp;&amp;nbsp;&amp;nbsp;&amp;nbsp;&amp;nbsp;&amp;nbsp;&amp;nbsp; Nama Produk" style="rounded=0;whiteSpace=wrap;html=1;align=left;" parent="cxCK_dhQIBNcuo4q6ZDZ-98" vertex="1">
          <mxGeometry width="610" height="60" as="geometry" />
        </mxCell>
        <mxCell id="cxCK_dhQIBNcuo4q6ZDZ-100" value="Foto" style="rounded=1;whiteSpace=wrap;html=1;arcSize=0;" parent="cxCK_dhQIBNcuo4q6ZDZ-98" vertex="1">
          <mxGeometry width="110" height="60" as="geometry" />
        </mxCell>
        <mxCell id="cxCK_dhQIBNcuo4q6ZDZ-101" value="Donate" style="rounded=1;whiteSpace=wrap;html=1;" parent="cxCK_dhQIBNcuo4q6ZDZ-98" vertex="1">
          <mxGeometry x="520" y="12.5" width="80" height="35" as="geometry" />
        </mxCell>
        <mxCell id="cxCK_dhQIBNcuo4q6ZDZ-102" value="Nama RS" style="rounded=0;whiteSpace=wrap;html=1;" parent="cxCK_dhQIBNcuo4q6ZDZ-98" vertex="1">
          <mxGeometry x="320" width="150" height="60" as="geometry" />
        </mxCell>
        <mxCell id="cxCK_dhQIBNcuo4q6ZDZ-113" value="" style="group" parent="cxCK_dhQIBNcuo4q6ZDZ-1" vertex="1" connectable="0">
          <mxGeometry x="1005" y="590" width="610" height="60" as="geometry" />
        </mxCell>
        <mxCell id="cxCK_dhQIBNcuo4q6ZDZ-114" value="&amp;nbsp;&amp;nbsp;&amp;nbsp;&amp;nbsp;&amp;nbsp;&amp;nbsp;&amp;nbsp;&amp;nbsp;&amp;nbsp;&amp;nbsp;&amp;nbsp;&amp;nbsp;&amp;nbsp;&amp;nbsp;&amp;nbsp;&amp;nbsp;&amp;nbsp;&amp;nbsp;&amp;nbsp;&amp;nbsp;&amp;nbsp;&amp;nbsp;&amp;nbsp;&amp;nbsp;&amp;nbsp;&amp;nbsp;&amp;nbsp;&amp;nbsp;&amp;nbsp;&amp;nbsp;&amp;nbsp;&amp;nbsp;&amp;nbsp;&amp;nbsp;&amp;nbsp;&amp;nbsp;&amp;nbsp;&amp;nbsp;&amp;nbsp;&amp;nbsp;&amp;nbsp;&amp;nbsp;&amp;nbsp; Nama Produk" style="rounded=0;whiteSpace=wrap;html=1;align=left;" parent="cxCK_dhQIBNcuo4q6ZDZ-113" vertex="1">
          <mxGeometry width="610" height="60" as="geometry" />
        </mxCell>
        <mxCell id="cxCK_dhQIBNcuo4q6ZDZ-115" value="Foto" style="rounded=1;whiteSpace=wrap;html=1;arcSize=0;" parent="cxCK_dhQIBNcuo4q6ZDZ-113" vertex="1">
          <mxGeometry width="110" height="60" as="geometry" />
        </mxCell>
        <mxCell id="cxCK_dhQIBNcuo4q6ZDZ-116" value="Donate" style="rounded=1;whiteSpace=wrap;html=1;" parent="cxCK_dhQIBNcuo4q6ZDZ-113" vertex="1">
          <mxGeometry x="520" y="12.5" width="80" height="35" as="geometry" />
        </mxCell>
        <mxCell id="cxCK_dhQIBNcuo4q6ZDZ-117" value="Nama RS" style="rounded=0;whiteSpace=wrap;html=1;" parent="cxCK_dhQIBNcuo4q6ZDZ-113" vertex="1">
          <mxGeometry x="320" width="150" height="60" as="geometry" />
        </mxCell>
        <mxCell id="cxCK_dhQIBNcuo4q6ZDZ-119" value="Login?" style="rhombus;whiteSpace=wrap;html=1;" parent="cxCK_dhQIBNcuo4q6ZDZ-1" vertex="1">
          <mxGeometry x="850" y="-260" width="100" height="110" as="geometry" />
        </mxCell>
        <mxCell id="cxCK_dhQIBNcuo4q6ZDZ-120" value="" style="edgeStyle=segmentEdgeStyle;endArrow=classic;html=1;entryX=0.5;entryY=0;entryDx=0;entryDy=0;exitX=1;exitY=0.5;exitDx=0;exitDy=0;" parent="cxCK_dhQIBNcuo4q6ZDZ-1" source="cxCK_dhQIBNcuo4q6ZDZ-119" target="cxCK_dhQIBNcuo4q6ZDZ-3" edge="1">
          <mxGeometry width="50" height="50" relative="1" as="geometry">
            <mxPoint x="710" y="320" as="sourcePoint" />
            <mxPoint x="760" y="270" as="targetPoint" />
          </mxGeometry>
        </mxCell>
        <mxCell id="cxCK_dhQIBNcuo4q6ZDZ-121" value="yes" style="text;html=1;strokeColor=none;fillColor=none;align=center;verticalAlign=middle;whiteSpace=wrap;rounded=0;" parent="cxCK_dhQIBNcuo4q6ZDZ-1" vertex="1">
          <mxGeometry x="1170" y="-230" width="40" height="20" as="geometry" />
        </mxCell>
        <mxCell id="cxCK_dhQIBNcuo4q6ZDZ-123" value="" style="rounded=0;whiteSpace=wrap;html=1;" parent="cxCK_dhQIBNcuo4q6ZDZ-1" vertex="1">
          <mxGeometry x="160" y="-90" width="720" height="60" as="geometry" />
        </mxCell>
        <mxCell id="cxCK_dhQIBNcuo4q6ZDZ-124" value="&lt;div&gt;LOGO&lt;/div&gt;" style="text;html=1;strokeColor=none;fillColor=none;align=center;verticalAlign=middle;whiteSpace=wrap;rounded=0;" parent="cxCK_dhQIBNcuo4q6ZDZ-1" vertex="1">
          <mxGeometry x="185" y="-70" width="40" height="20" as="geometry" />
        </mxCell>
        <mxCell id="cxCK_dhQIBNcuo4q6ZDZ-125" value="Selamat Datang, ..." style="text;html=1;strokeColor=none;fillColor=none;align=center;verticalAlign=middle;whiteSpace=wrap;rounded=0;" parent="cxCK_dhQIBNcuo4q6ZDZ-1" vertex="1">
          <mxGeometry x="755" y="-70" width="110" height="20" as="geometry" />
        </mxCell>
        <mxCell id="IAhfVY7wfMroOPAkI_gA-1" value="Email" style="rounded=0;whiteSpace=wrap;html=1;" parent="cxCK_dhQIBNcuo4q6ZDZ-1" vertex="1">
          <mxGeometry x="360.12" y="60" width="320" height="60" as="geometry" />
        </mxCell>
        <mxCell id="IAhfVY7wfMroOPAkI_gA-3" value="Password" style="rounded=0;whiteSpace=wrap;html=1;" parent="cxCK_dhQIBNcuo4q6ZDZ-1" vertex="1">
          <mxGeometry x="359.87" y="160" width="320" height="60" as="geometry" />
        </mxCell>
        <mxCell id="IAhfVY7wfMroOPAkI_gA-4" value="Sign In" style="rounded=1;whiteSpace=wrap;html=1;" parent="cxCK_dhQIBNcuo4q6ZDZ-1" vertex="1">
          <mxGeometry x="460.12" y="260" width="120" height="40" as="geometry" />
        </mxCell>
        <mxCell id="IAhfVY7wfMroOPAkI_gA-6" value="" style="edgeStyle=segmentEdgeStyle;endArrow=classic;html=1;entryX=0.5;entryY=0;entryDx=0;entryDy=0;exitX=0;exitY=0.5;exitDx=0;exitDy=0;" parent="cxCK_dhQIBNcuo4q6ZDZ-1" source="cxCK_dhQIBNcuo4q6ZDZ-119" target="cxCK_dhQIBNcuo4q6ZDZ-123" edge="1">
          <mxGeometry width="50" height="50" relative="1" as="geometry">
            <mxPoint x="710" y="360" as="sourcePoint" />
            <mxPoint x="760" y="310" as="targetPoint" />
          </mxGeometry>
        </mxCell>
        <mxCell id="IAhfVY7wfMroOPAkI_gA-7" value="&lt;div&gt;No&lt;/div&gt;" style="text;html=1;strokeColor=none;fillColor=none;align=center;verticalAlign=middle;whiteSpace=wrap;rounded=0;" parent="cxCK_dhQIBNcuo4q6ZDZ-1" vertex="1">
          <mxGeometry x="640" y="-230" width="40" height="20" as="geometry" />
        </mxCell>
      </root>
    </mxGraphModel>
  </diagram>
  <diagram id="rsdoTcV3vxyqOtTxfi3W" name="NewsPage">
    <mxGraphModel dx="1422" dy="801" grid="1" gridSize="10" guides="1" tooltips="1" connect="1" arrows="1" fold="1" page="1" pageScale="1" pageWidth="850" pageHeight="1100" math="0" shadow="0">
      <root>
        <mxCell id="aMoAsVzrypr2NCv9E3cy-0" />
        <mxCell id="aMoAsVzrypr2NCv9E3cy-1" parent="aMoAsVzrypr2NCv9E3cy-0" />
        <mxCell id="wNPyau2QsmetYvXF9IuY-1" value="" style="rounded=0;whiteSpace=wrap;html=1;" parent="aMoAsVzrypr2NCv9E3cy-1" vertex="1">
          <mxGeometry x="65" y="10" width="720" height="60" as="geometry" />
        </mxCell>
        <mxCell id="wNPyau2QsmetYvXF9IuY-2" value="&lt;div&gt;LOGO&lt;/div&gt;" style="text;html=1;strokeColor=none;fillColor=none;align=center;verticalAlign=middle;whiteSpace=wrap;rounded=0;" parent="aMoAsVzrypr2NCv9E3cy-1" vertex="1">
          <mxGeometry x="90" y="30" width="40" height="20" as="geometry" />
        </mxCell>
        <mxCell id="wNPyau2QsmetYvXF9IuY-3" value="LOGIN" style="text;html=1;strokeColor=none;fillColor=none;align=center;verticalAlign=middle;whiteSpace=wrap;rounded=0;" parent="aMoAsVzrypr2NCv9E3cy-1" vertex="1">
          <mxGeometry x="730" y="30" width="40" height="20" as="geometry" />
        </mxCell>
        <mxCell id="wNPyau2QsmetYvXF9IuY-9" value="" style="rounded=0;whiteSpace=wrap;html=1;" parent="aMoAsVzrypr2NCv9E3cy-1" vertex="1">
          <mxGeometry x="105" y="110" width="640" height="700" as="geometry" />
        </mxCell>
        <mxCell id="wNPyau2QsmetYvXF9IuY-12" value="" style="rounded=1;whiteSpace=wrap;html=1;arcSize=0;" parent="aMoAsVzrypr2NCv9E3cy-1" vertex="1">
          <mxGeometry x="130" y="120" width="380" height="660" as="geometry" />
        </mxCell>
        <mxCell id="wNPyau2QsmetYvXF9IuY-14" value="" style="rounded=1;whiteSpace=wrap;html=1;arcSize=0;" parent="aMoAsVzrypr2NCv9E3cy-1" vertex="1">
          <mxGeometry x="560" y="120" width="170" height="310" as="geometry" />
        </mxCell>
        <mxCell id="wNPyau2QsmetYvXF9IuY-19" value="Top News" style="rounded=1;whiteSpace=wrap;html=1;" parent="aMoAsVzrypr2NCv9E3cy-1" vertex="1">
          <mxGeometry x="570" y="130" width="150" height="30" as="geometry" />
        </mxCell>
        <mxCell id="wNPyau2QsmetYvXF9IuY-20" value="Image" style="rounded=1;whiteSpace=wrap;html=1;" parent="aMoAsVzrypr2NCv9E3cy-1" vertex="1">
          <mxGeometry x="140" y="200" width="360" height="150" as="geometry" />
        </mxCell>
        <mxCell id="wNPyau2QsmetYvXF9IuY-21" value="JUDUL" style="rounded=0;whiteSpace=wrap;html=1;" parent="aMoAsVzrypr2NCv9E3cy-1" vertex="1">
          <mxGeometry x="140" y="130" width="360" height="60" as="geometry" />
        </mxCell>
        <mxCell id="wNPyau2QsmetYvXF9IuY-22" value="&lt;h1&gt;Heading&lt;/h1&gt;&lt;p&gt;Lorem ipsum dolor sit amet, consectetur adipisicing elit, sed do eiusmod tempor incididunt ut labore et dolore magna aliqua.&lt;/p&gt;" style="text;html=1;strokeColor=none;fillColor=none;spacing=5;spacingTop=-20;whiteSpace=wrap;overflow=hidden;rounded=0;" parent="aMoAsVzrypr2NCv9E3cy-1" vertex="1">
          <mxGeometry x="145" y="370" width="350" height="390" as="geometry" />
        </mxCell>
      </root>
    </mxGraphModel>
  </diagram>
</mxfile>
